<svg xmlns="http://www.w3.org/2000/svg" viewBox="0 0 800 600" font-family="system-ui, sans-serif">
  <defs>
    <linearGradient id="g1" x1="0" y1="0" x2="0" y2="1"><stop offset="0%" stop-color="#059669"/><stop offset="100%" stop-color="#047857"/></linearGradient>
    <linearGradient id="g2" x1="0" y1="0" x2="1" y2="1"><stop offset="0%" stop-color="#10b981"/><stop offset="100%" stop-color="#059669"/></linearGradient>
    <linearGradient id="g3" x1="0" y1="0" x2="1" y2="1"><stop offset="0%" stop-color="#6366f1"/><stop offset="100%" stop-color="#4f46e5"/></linearGradient>
    <linearGradient id="g4" x1="0" y1="0" x2="1" y2="1"><stop offset="0%" stop-color="#f59e0b"/><stop offset="100%" stop-color="#d97706"/></linearGradient>
    <marker id="arrow" viewBox="0 0 10 10" refX="8" refY="5" markerWidth="5" markerHeight="5" orient="auto"><path d="M 0 0 L 10 5 L 0 10 Z" fill="#64748b"/></marker>
  </defs>

  <rect width="800" height="600" fill="#f8fafc" rx="12"/>

  <text x="400" y="35" text-anchor="middle" font-size="20" font-weight="bold" fill="#1e293b">AI Integration &amp; Governance Structure</text>

  <!-- Top: AI Node Operators -->
  <rect x="200" y="55" width="400" height="75" rx="10" fill="url(#g1)" opacity="0.9"/>
  <text x="400" y="80" text-anchor="middle" font-size="14" font-weight="bold" fill="#fff">AI Node Operators</text>
  <text x="400" y="100" text-anchor="middle" font-size="11" fill="#d1fae5">Community-run nodes running open-source models</text>
  <text x="400" y="118" text-anchor="middle" font-size="10" fill="#a7f3d0">Earn hNOBT for AI compute and inference</text>

  <!-- Down arrow -->
  <line x1="400" y1="130" x2="400" y2="155" stroke="#64748b" stroke-width="1.5" marker-end="url(#arrow)"/>

  <!-- AI Applications row -->
  <rect x="30" y="160" width="740" height="130" rx="12" fill="#f1f5f9" stroke="#cbd5e1" stroke-width="1"/>
  <text x="400" y="185" text-anchor="middle" font-size="14" font-weight="bold" fill="#1e293b">AI Applications (Open-Source Models)</text>

  <rect x="45" y="198" width="170" height="78" rx="8" fill="url(#g2)" opacity="0.85"/>
  <text x="130" y="220" text-anchor="middle" font-size="11" font-weight="bold" fill="#fff">Dispute Resolution</text>
  <text x="130" y="240" text-anchor="middle" font-size="9" fill="#d1fae5">Analyzes evidence</text>
  <text x="130" y="256" text-anchor="middle" font-size="9" fill="#d1fae5">Recommends fair rulings</text>

  <rect x="225" y="198" width="170" height="78" rx="8" fill="url(#g2)" opacity="0.85"/>
  <text x="310" y="220" text-anchor="middle" font-size="11" font-weight="bold" fill="#fff">Freelancer Matching</text>
  <text x="310" y="240" text-anchor="middle" font-size="9" fill="#d1fae5">Skill-based job pairing</text>
  <text x="310" y="256" text-anchor="middle" font-size="9" fill="#d1fae5">Reputation scoring</text>

  <rect x="405" y="198" width="170" height="78" rx="8" fill="url(#g3)" opacity="0.85"/>
  <text x="490" y="220" text-anchor="middle" font-size="11" font-weight="bold" fill="#fff">Fraud Detection</text>
  <text x="490" y="240" text-anchor="middle" font-size="9" fill="#e0e7ff">Real-time monitoring</text>
  <text x="490" y="256" text-anchor="middle" font-size="9" fill="#e0e7ff">Sybil attack prevention</text>

  <rect x="585" y="198" width="170" height="78" rx="8" fill="url(#g4)" opacity="0.85"/>
  <text x="670" y="220" text-anchor="middle" font-size="11" font-weight="bold" fill="#fff">RWA Verification</text>
  <text x="670" y="240" text-anchor="middle" font-size="9" fill="#fef3c7">Document analysis</text>
  <text x="670" y="256" text-anchor="middle" font-size="9" fill="#fef3c7">Compliance checking</text>

  <!-- Down arrow -->
  <line x1="400" y1="290" x2="400" y2="315" stroke="#64748b" stroke-width="1.5" marker-end="url(#arrow)"/>

  <!-- Governance Section -->
  <rect x="100" y="320" width="600" height="140" rx="12" fill="#f0fdf4" stroke="#10b981" stroke-width="1.5"/>

  <text x="400" y="348" text-anchor="middle" font-size="14" font-weight="bold" fill="#065f46">Governance Framework</text>

  <!-- Governance boxes row -->
  <rect x="115" y="360" width="180" height="85" rx="8" fill="#fff" stroke="#10b981" stroke-width="1"/>
  <text x="205" y="382" text-anchor="middle" font-size="11" font-weight="bold" fill="#059669">Vault</text>
  <text x="205" y="400" text-anchor="middle" font-size="9" fill="#475569">Provide BroilerPlus LP</text>
  <text x="205" y="416" text-anchor="middle" font-size="9" fill="#475569">Earn BRT Rewards</text>
  <text x="205" y="432" text-anchor="middle" font-size="9" fill="#475569">Voting rights granted</text>

  <rect x="310" y="360" width="180" height="85" rx="8" fill="#fff" stroke="#10b981" stroke-width="1"/>
  <text x="400" y="382" text-anchor="middle" font-size="11" font-weight="bold" fill="#059669">Voting Rights</text>
  <text x="400" y="400" text-anchor="middle" font-size="9" fill="#475569">Protocol upgrades</text>
  <text x="400" y="416" text-anchor="middle" font-size="9" fill="#475569">Fee structures</text>
  <text x="400" y="432" text-anchor="middle" font-size="9" fill="#475569">Treasury allocations</text>

  <rect x="505" y="360" width="180" height="85" rx="8" fill="#fff" stroke="#10b981" stroke-width="1"/>
  <text x="595" y="382" text-anchor="middle" font-size="11" font-weight="bold" fill="#059669">Dispute Resolution</text>
  <text x="595" y="400" text-anchor="middle" font-size="9" fill="#475569">Kleros integration</text>
  <text x="595" y="416" text-anchor="middle" font-size="9" fill="#475569">Community jurors</text>
  <text x="595" y="432" text-anchor="middle" font-size="9" fill="#475569">AI-assisted rulings</text>

  <!-- Bottom: AI Governance -->
  <rect x="150" y="485" width="500" height="45" rx="10" fill="url(#g1)" opacity="0.9"/>
  <text x="400" y="510" text-anchor="middle" font-size="12" font-weight="bold" fill="#fff">AI Governance: Node operators participate in AI model governance</text>

  <rect x="150" y="540" width="500" height="40" rx="10" fill="#1e293b"/>
  <text x="400" y="565" text-anchor="middle" font-size="11" fill="#94a3b8">Open-source models: Llama 3 · Mixtral · StableLM · LLaVA</text>
</svg>
